# xmcd CD database file
#
# Track frame offsets:
#	150
#	19790
#	33060
#	50343
#	76270
#	99548
#	117425
#	137285
#
# Disc length: 2007 seconds
#
# Revision: 0
# Processed by: cddbd v1.5PL3 Copyright (c) Steve Scherf et al.
# Submitted via: CD2WAV32(EN) R3.19
#
DISCID=5507d508
DTITLE=Ahpex Twin - Come To Daddy
DYEAR=1900
DGENRE=
TTITLE0=Come To Daddy, Pappy mix
TTITLE1=Flim
TTITLE2=Come To Daddy, Little Lord Faulteroy Mix
TTITLE3=Bucephalus Bouncing Ball
TTITLE4=To Cure A Weakling Child, Contour Regard
TTITLE5=Funny Little Man
TTITLE6=Come To Daddy, Mummy Mix
TTITLE7=IZ-US
EXTD=
EXTT0=
EXTT1=
EXTT2=
EXTT3=
EXTT4=
EXTT5=
EXTT6=
EXTT7=
PLAYORDER=
